ffmpeg version git-2013-08-16-ec0e0eb Copyright (c) 2000-2013 the FFmpeg developers
  built on Aug 16 2013 10:11:34 with gcc 4.4.7 (GCC) 20120313 (Red Hat 4.4.7-3)
  configuration: --prefix=/root/ffmpeg_build --extra-cflags=-I/root/ffmpeg_build/include --extra-ldflags=-L/root/ffmpeg_build/lib --bindir=/root/bin --extra-libs=-ldl --enable-gpl --enable-nonfree --enable-libfdk_aac --enable-libmp3lame --enable-libopus --enable-libvorbis --enable-libvpx --enable-libx264 --enable-libfreetype --enable-libspeex --enable-libtheora
  libavutil      52. 42.100 / 52. 42.100
  libavcodec     55. 28.100 / 55. 28.100
  libavformat    55. 13.102 / 55. 13.102
  libavdevice    55.  3.100 / 55.  3.100
  libavfilter     3. 82.100 /  3. 82.100
  libswscale      2.  5.100 /  2.  5.100
  libswresample   0. 17.103 /  0. 17.103
  libpostproc    52.  3.100 / 52.  3.100
[mp3 @ 0x2ada260] Header missing
[mp3 @ 0x2adac60] Header missing
[h264 @ 0x2adb660] non-existing PPS referenced
[h264 @ 0x2adb660] non-existing PPS 0 referenced
[h264 @ 0x2adb660] decode_slice_header error
[h264 @ 0x2adb660] no frame!
[h264 @ 0x2adb660] non-existing PPS referenced
[h264 @ 0x2adb660] non-existing PPS 0 referenced
[h264 @ 0x2adb660] decode_slice_header error
[h264 @ 0x2adb660] no frame!
[h264 @ 0x2adb660] non-existing PPS referenced
[h264 @ 0x2adb660] non-existing PPS 0 referenced
[h264 @ 0x2adb660] decode_slice_header error
[h264 @ 0x2adb660] no frame!
[h264 @ 0x2adb660] non-existing PPS referenced
[h264 @ 0x2adb660] non-existing PPS 0 referenced
[h264 @ 0x2adb660] decode_slice_header error
[h264 @ 0x2adb660] no frame!
[h264 @ 0x2adb660] mmco: unref short failure
    Last message repeated 1 times
[mpegts @ 0x2ad6240] PES packet size mismatch
    Last message repeated 2 times
Input #0, mpegts, from '/mnt/media/BISS.ts':
  Duration: 03:46:20.77, start: 27901.627256, bitrate: 20992 kb/s
  Program 1 
    Metadata:
      service_name    : DKDR4
      service_provider: DR MCR
    Stream #0:0[0x100](dan): Audio: mp2 ([3][0][0][0] / 0x0003), 48000 Hz, stereo, s16p, 384 kb/s
    Stream #0:1[0x101](dan): Audio: mp2 ([3][0][0][0] / 0x0003), 48000 Hz, stereo, s16p, 384 kb/s
    Stream #0:2[0x134]: Video: h264 (High) ([27][0][0][0] / 0x001B), yuv420p, 1920x1080 [SAR 1:1 DAR 16:9], 25 fps, 25 tbr, 90k tbn, 50 tbc
-async is forwarded to lavfi similarly to -af aresample=async=1:min_hard_comp=0.100000:first_pts=0.
[libx264 @ 0x2adcea0] using SAR=1/1
[libx264 @ 0x2adcea0] frame MB size (120x68) > level limit (3600)
[libx264 @ 0x2adcea0] DPB size (4 frames, 32640 mbs) > level limit (2 frames, 18000 mbs)
[libx264 @ 0x2adcea0] MB rate (204000) > level limit (108000)
[libx264 @ 0x2adcea0] using cpu capabilities: MMX2 SSE2Fast SSSE3 SSE4.2
[libx264 @ 0x2adcea0] profile High, level 3.1
Output #0, mpegts, to 'udp://54.229.139.162:5006':
  Metadata:
    encoder         : Lavf55.13.102
    Stream #0:0: Video: h264 (libx264), yuv420p, 1920x1080 [SAR 1:1 DAR 16:9], q=-1--1, 5000 kb/s, 90k tbn, 25 tbc
    Stream #0:1(dan): Audio: aac (libfdk_aac), 48000 Hz, stereo, s16, 128 kb/s
Stream mapping:
  Stream #0:2 -> #0:0 (h264 -> libx264)
  Stream #0:1 -> #0:1 (mp2 -> libfdk_aac)
Press [q] to stop, [?] for help
[mp2 @ 0x2adac60] Header missing
Error while decoding stream #0:1: Invalid data found when processing input
[h264 @ 0x3db72a0] reference picture missing during reorder
[h264 @ 0x3db72a0] Missing reference picture, default is 0
[h264 @ 0x3db72a0] decode_slice_header error
[h264 @ 0x3dfc0e0] reference picture missing during reorder
[h264 @ 0x3dfc0e0] Missing reference picture, default is 65546
[h264 @ 0x3e6aa80] reference picture missing during reorder
[h264 @ 0x3e6aa80] Missing reference picture, default is 65542
[h264 @ 0x3fb67c0] mmco: unref short failure
frame=    0 fps=0.0 q=0.0 size=       0kB time=00:00:00.53 bitrate=   0.0kbits/s    frame=   18 fps= 12 q=0.0 size=       0kB time=00:00:00.72 bitrate=   0.0kbits/s dup=16 drop=0    frame=   32 fps= 14 q=0.0 size=       0kB time=00:00:01.36 bitrate=   0.0kbits/s dup=16 drop=0    frame=   34 fps=9.8 q=23.0 size=     422kB time=00:00:01.38 bitrate=2490.3kbits/s dup=16 drop=0    frame=   39 fps=9.8 q=29.0 size=     433kB time=00:00:01.60 bitrate=2215.6kbits/s dup=16 drop=0    frame=   44 fps=9.5 q=29.0 size=     437kB time=00:00:01.74 bitrate=2046.2kbits/s dup=16 drop=0    frame=   51 fps=9.3 q=26.0 size=     519kB time=00:00:02.02 bitrate=2098.7kbits/s dup=16 drop=0    frame=   52 fps=8.2 q=24.0 size=     530kB time=00:00:02.17 bitrate=1996.8kbits/s dup=16 drop=0    frame=   56 fps=7.9 q=24.0 size=     659kB time=00:00:02.30 bitrate=2344.8kbits/s dup=16 drop=0    frame=   57 fps=7.5 q=25.0 size=     675kB time=00:00:02.32 bitrate=2376.9kbits/s dup=16 drop=0    frame=   60 fps=7.4 q=25.0 size=     969kB time=00:00:02.45 bitrate=3234.4kbits/s dup=16 drop=0    frame=   61 fps=6.8 q=28.0 size=     989kB time=00:00:02.45 bitrate=3301.9kbits/s dup=16 drop=0    frame=   66 fps=6.7 q=28.0 size=    1054kB time=00:00:02.58 bitrate=3345.5kbits/s dup=16 drop=0    frame=   70 fps=6.7 q=27.0 size=    1107kB time=00:00:02.73 bitrate=3321.2kbits/s dup=16 drop=0    frame=   73 fps=6.6 q=26.0 size=    1166kB time=00:00:02.88 bitrate=3316.6kbits/s dup=16 drop=0    frame=   77 fps=6.5 q=25.0 size=    1240kB time=00:00:03.15 bitrate=3216.8kbits/s dup=16 drop=0    frame=   81 fps=6.3 q=24.0 size=    1320kB time=00:00:03.30 bitrate=3270.7kbits/s dup=16 drop=0    frame=   85 fps=6.2 q=25.0 size=    1643kB time=00:00:03.45 bitrate=3894.5kbits/s dup=16 drop=0    frame=   90 fps=6.2 q=27.0 size=    1728kB time=00:00:03.60 bitrate=3926.3kbits/s dup=16 drop=0    frame=   93 fps=5.6 q=27.0 size=    1784kB time=00:00:03.69 bitrate=3959.8kbits/s dup=16 drop=0    frame=   98 fps=5.0 q=26.0 size=    1870kB time=00:00:03.88 bitrate=3944.5kbits/s dup=16 drop=0    frame=  102 fps=4.8 q=26.0 size=    1944kB time=00:00:04.09 bitrate=3888.9kbits/s dup=16 drop=0    frame=  106 fps=4.8 q=23.0 size=    2024kB time=00:00:04.24 bitrate=3905.1kbits/s dup=16 drop=0    frame=  110 fps=4.8 q=25.0 size=    2341kB time=00:00:04.39 bitrate=4364.5kbits/s dup=16 drop=0    frame=  110 fps=4.6 q=25.0 size=    2341kB time=00:00:04.41 bitrate=4343.4kbits/s dup=16 drop=0    frame=  114 fps=4.4 q=26.0 size=    2416kB time=00:00:04.56 bitrate=4335.1kbits/s dup=16 drop=0    frame=  118 fps=4.2 q=26.0 size=    2493kB time=00:00:04.69 bitrate=4351.8kbits/s dup=16 drop=0    frame=  120 fps=4.1 q=26.0 size=    2512kB time=00:00:04.75 bitrate=4325.2kbits/s dup=16 drop=0    frame=  123 fps=4.1 q=26.0 size=    2574kB time=00:00:04.90 bitrate=4297.1kbits/s dup=16 drop=0    frame=  126 fps=4.1 q=26.0 size=    2634kB time=00:00:05.14 bitrate=4196.9kbits/s dup=16 drop=0    frame=  128 fps=4.0 q=26.0 size=    2654kB time=00:00:05.18 bitrate=4193.7kbits/s dup=16 drop=0    frame=  130 fps=4.0 q=26.0 size=    2710kB time=00:00:05.26 bitrate=4213.4kbits/s dup=16 drop=0    frame=  132 fps=4.0 q=25.0 size=    2732kB time=00:00:05.33 bitrate=4195.6kbits/s dup=16 drop=0    frame=  136 fps=3.9 q=27.0 size=    3097kB time=00:00:05.46 bitrate=4646.1kbits/s dup=16 drop=0    frame=  139 fps=3.9 q=26.0 size=    3166kB time=00:00:05.56 bitrate=4657.9kbits/s dup=16 drop=0    frame=  142 fps=3.9 q=27.0 size=    3199kB time=00:00:05.61 bitrate=4671.0kbits/s dup=16 drop=0    frame=  145 fps=3.9 q=26.0 size=    3269kB time=00:00:05.78 bitrate=4631.9kbits/s dup=16 drop=0    frame=  147 fps=3.9 q=26.0 size=    3327kB time=00:00:05.93 bitrate=4595.9kbits/s dup=16 drop=0    frame=  151 fps=3.8 q=26.0 size=    3407kB time=00:00:06.14 bitrate=4542.8kbits/s dup=16 drop=0    frame=  156 fps=3.8 q=23.0 size=    3504kB time=00:00:06.25 bitrate=4591.6kbits/s dup=16 drop=0    frame=  160 fps=3.7 q=26.0 size=    3813kB time=00:00:06.42 bitrate=4864.0kbits/s dup=16 drop=0    frame=  165 fps=3.7 q=27.0 size=    3890kB time=00:00:06.54 bitrate=4866.1kbits/s dup=16 drop=0    frame=  169 fps=3.7 q=26.0 size=    3962kB time=00:00:06.69 bitrate=4845.0kbits/s dup=16 drop=0    frame=  173 fps=3.6 q=26.0 size=    4028kB time=00:00:06.97 bitrate=4730.0kbits/s dup=16 drop=0    frame=  177 fps=3.5 q=26.0 size=    4096kB time=00:00:07.12 bitrate=4708.9kbits/s dup=16 drop=0    frame=  181 fps=3.4 q=23.0 size=    4166kB time=00:00:07.27 bitrate=4691.0kbits/s dup=16 drop=0    frame=  185 fps=3.4 q=26.0 size=    4477kB time=00:00:07.40 bitrate=4954.1kbits/s dup=16 drop=0    frame=  186 fps=3.4 q=27.0 size=    4489kB time=00:00:07.40 bitrate=4967.3kbits/s dup=16 drop=0    frame=  190 fps=3.3 q=26.0 size=    4558kB time=00:00:07.55 bitrate=4944.4kbits/s dup=16 drop=0    frame=  194 fps=3.3 q=26.0 size=    4631kB time=00:00:07.70 bitrate=4926.2kbits/s dup=16 drop=0    frame=  196 fps=3.3 q=26.0 size=    4643kB time=00:00:07.93 bitrate=4792.7kbits/s dup=16 drop=0    frame=  198 fps=3.2 q=26.0 size=    4701kB time=00:00:07.97 bitrate=4827.2kbits/s dup=16 drop=0    frame=  202 fps=3.2 q=26.0 size=    4773kB time=00:00:08.12 bitrate=4810.8kbits/s dup=16 drop=0    frame=  204 fps=3.2 q=26.0 size=    4786kB time=00:00:08.21 bitrate=4773.7kbits/s dup=16 drop=0    frame=  205 fps=3.1 q=26.0 size=    4832kB time=00:00:08.23 bitrate=4806.8kbits/s dup=16 drop=0    frame=  208 fps=3.1 q=26.0 size=    4860kB time=00:00:08.34 bitrate=4773.1kbits/s dup=16 drop=0    frame=  210 fps=3.0 q=26.0 size=    5156kB time=00:00:08.36 bitrate=5051.0kbits/s dup=16 drop=0    frame=  214 fps=3.0 q=26.0 size=    5228kB time=00:00:08.51 bitrate=5031.1kbits/s dup=16 drop=0    frame=  218 fps=3.0 q=26.0 size=    5298kB time=00:00:08.72 bitrate=4974.1kbits/s dup=16 drop=0    frame=  221 fps=3.0 q=26.0 size=    5324kB time=00:00:08.91 bitrate=4890.8kbits/s dup=16 drop=0    frame=  222 fps=2.9 q=26.0 size=    5366kB time=00:00:08.93 bitrate=4917.3kbits/s dup=16 drop=0    frame=  226 fps=3.0 q=26.0 size=    5436kB time=00:00:09.08 bitrate=4900.4kbits/s dup=16 drop=0    frame=  230 fps=3.0 q=26.0 size=    5509kB time=00:00:09.23 bitrate=4886.0kbits/s dup=16 drop=0    frame=  236 fps=3.0 q=26.0 size=    5887kB time=00:00:09.42 bitrate=5114.1kbits/s dup=16 drop=0    frame=  240 fps=3.0 q=26.0 size=    5979kB time=00:00:09.57 bitrate=5113.2kbits/s dup=16 drop=0    frame=  243 fps=3.0 q=26.0 size=    6046kB time=00:00:09.74 bitrate=5079.9kbits/s dup=16 drop=0    frame=  248 fps=3.0 q=26.0 size=    6138kB time=00:00:10.00 bitrate=5025.6kbits/s dup=16 drop=0    frame=  251 fps=3.0 q=26.0 size=    6207kB time=00:00:10.09 bitrate=5039.5kbits/s dup=16 drop=0    frame=  256 fps=3.0 q=23.0 size=    6301kB time=00:00:10.28 bitrate=5020.3kbits/s dup=16 drop=0    frame=  260 fps=3.0 q=26.0 size=    6608kB time=00:00:10.36 bitrate=5221.5kbits/s dup=16 drop=0    frame=  264 fps=3.0 q=26.0 size=    6680kB time=00:00:10.53 bitrate=5192.2kbits/s dup=16 drop=0    frame=  268 fps=3.0 q=26.0 size=    6749kB time=00:00:10.81 bitrate=5111.5kbits/s dup=16 drop=0    frame=  273 fps=3.0 q=26.0 size=    6825kB time=00:00:10.94 bitrate=5108.8kbits/s dup=16 drop=0    frame=  277 fps=3.0 q=26.0 size=    6892kB time=00:00:11.09 bitrate=5089.6kbits/s dup=16 drop=0    frame=  281 fps=3.0 q=23.0 size=    6962kB time=00:00:11.22 bitrate=5082.8kbits/s dup=16 drop=0    frame=  285 fps=3.0 q=26.0 size=    7271kB time=00:00:11.37 bitrate=5238.6kbits/s dup=16 drop=0    frame=  288 fps=3.0 q=26.0 size=    7301kB time=00:00:11.52 bitrate=5191.5kbits/s dup=16 drop=0    frame=  289 fps=3.0 q=26.0 size=    7345kB time=00:00:11.54 bitrate=5213.4kbits/s dup=16 drop=0    frame=  294 fps=3.0 q=26.0 size=    7425kB time=00:00:11.79 bitrate=5156.2kbits/s dup=16 drop=0    frame=  298 fps=3.0 q=26.0 size=    7494kB time=00:00:11.94 bitrate=5138.4kbits/s dup=16 drop=0    frame=  302 fps=3.0 q=26.0 size=    7565kB time=00:00:12.11 bitrate=5114.6kbits/s dup=16 drop=0    frame=  306 fps=3.0 q=23.0 size=    7639kB time=00:00:12.24 bitrate=5110.3kbits/s dup=16 drop=0    frame=  310 fps=3.1 q=26.0 size=    7953kB time=00:00:12.39 bitrate=5256.3kbits/s dup=16 drop=0    frame=  314 fps=3.1 q=26.0 size=    8025kB time=00:00:12.54 bitrate=5240.6kbits/s dup=16 drop=0    frame=  318 fps=3.1 q=26.0 size=    8092kB time=00:00:12.75 bitrate=5196.5kbits/s dup=16 drop=0    frame=  322 fps=3.1 q=26.0 size=    8161kB time=00:00:12.90 bitrate=5179.6kbits/s dup=16 drop=0    frame=  326 fps=3.1 q=26.0 size=    8230kB time=00:00:13.05 bitrate=5163.8kbits/s dup=16 drop=0    frame=  330 fps=3.1 q=26.0 size=    8300kB time=00:00:13.20 bitrate=5149.2kbits/s dup=16 drop=0    frame=  334 fps=3.1 q=26.0 size=    8595kB time=00:00:13.33 bitrate=5280.5kbits/s dup=16 drop=0    frame=  339 fps=3.2 q=26.0 size=    8756kB time=00:00:13.54 bitrate=5294.9kbits/s dup=16 drop=0    frame=  340 fps=3.1 q=26.0 size=    8770kB time=00:00:13.69 bitrate=5245.4kbits/s dup=16 drop=0    frame=  345 fps=3.1 q=26.0 size=    8861kB time=00:00:13.82 bitrate=5251.2kbits/s dup=16 drop=0    frame=  348 fps=3.1 q=26.0 size=    8936kB time=00:00:13.97 bitrate=5238.8kbits/s dup=16 drop=0    frame=  352 fps=3.1 q=26.0 size=    9017kB time=00:00:14.10 bitrate=5238.1kbits/s dup=16 drop=0    frame=  354 fps=3.1 q=26.0 size=    9031kB time=00:00:14.10 bitrate=5246.4kbits/s dup=16 drop=0    frame=  355 fps=3.1 q=26.0 size=    9085kB time=00:00:14.20 bitrate=5238.0kbits/s dup=16 drop=0    frame=  361 fps=3.1 q=27.0 size=    9424kB time=00:00:14.40 bitrate=5361.0kbits/s dup=16 drop=0    frame=  365 fps=3.1 q=26.0 size=    9493kB time=00:00:14.67 bitrate=5298.7kbits/s dup=16 drop=0    frame=  366 fps=3.1 q=26.0 size=    9500kB time=00:00:14.69 bitrate=5294.9kbits/s dup=16 drop=0    frame=  368 fps=3.0 q=26.0 size=    9552kB time=00:00:14.78 bitrate=5292.9kbits/s dup=16 drop=0    frame=  373 fps=3.0 q=26.0 size=    9632kB time=00:00:14.89 bitrate=5299.0kbits/s dup=16 drop=0    frame=  377 fps=3.0 q=26.0 size=    9703kB time=00:00:15.04 bitrate=5284.9kbits/s dup=16 drop=0    frame=  380 fps=3.0 q=26.0 size=    9758kB time=00:00:15.18 bitrate=5262.6kbits/s dup=16 drop=0    frame=  381 fps=3.0 q=23.0 size=    9773kB time=00:00:15.18 bitrate=5270.6kbits/s dup=16 drop=0    frame=  385 fps=3.0 q=26.0 size=   10076kB time=00:00:15.33 bitrate=5381.2kbits/s dup=16 drop=0    frame=  385 fps=3.0 q=26.0 size=   10076kB time=00:00:15.36 bitrate=5373.8kbits/s dup=16 drop=0    frame=  389 fps=3.0 q=26.0 size=   10144kB time=00:00:15.61 bitrate=5321.5kbits/s dup=16 drop=0    frame=  390 fps=3.0 q=26.0 size=   10160kB time=00:00:15.61 bitrate=5329.6kbits/s dup=16 drop=0    frame=  390 fps=3.0 q=26.0 size=   10160kB time=00:00:15.70 bitrate=5300.6kbits/s dup=16 drop=0    frame=  394 fps=3.0 q=26.0 size=   10229kB time=00:00:15.76 bitrate=5315.4kbits/s dup=16 drop=0    frame=  394 fps=3.0 q=26.0 size=   10229kB time=00:00:15.78 bitrate=5308.2kbits/s dup=16 drop=0    frame=  398 fps=2.9 q=26.0 size=   10301kB time=00:00:15.91 bitrate=5302.4kbits/s dup=16 drop=0    frame=  402 fps=2.9 q=26.0 size=   10372kB time=00:00:16.04 bitrate=5296.6kbits/s dup=16 drop=0    frame=  404 fps=2.9 q=26.0 size=   10386kB time=00:00:16.12 bitrate=5275.7kbits/s dup=16 drop=0    frame=  406 fps=2.9 q=23.0 size=   10439kB time=00:00:16.19 bitrate=5281.5kbits/s dup=16 drop=0    frame=  410 fps=2.9 q=26.0 size=   10748kB time=00:00:16.34 bitrate=5387.8kbits/s dup=16 drop=0    frame=  410 fps=2.9 q=26.0 size=   10748kB time=00:00:16.36 bitrate=5380.8kbits/s dup=16 drop=0    frame=  414 fps=2.9 q=26.0 size=   10823kB time=00:00:16.66 bitrate=5321.5kbits/s dup=16 drop=0    frame=  418 fps=2.9 q=26.0 size=   10896kB time=00:00:16.72 bitrate=5336.9kbits/s dup=16 drop=0    frame=  420 fps=2.9 q=26.0 size=   10919kB time=00:00:16.85 bitrate=5307.6kbits/s dup=16 drop=0    frame=  422 fps=2.9 q=26.0 size=   10968kB time=00:00:16.87 bitrate=5324.3kbits/s dup=16 drop=0    frame=  426 fps=2.9 q=26.0 size=   11040kB time=00:00:17.00 bitrate=5319.3kbits/s dup=16 drop=0    frame=  427 fps=2.9 q=26.0 size=   11053kB time=00:00:17.08 bitrate=5298.7kbits/s dup=16 drop=0    frame=  430 fps=2.9 q=26.0 size=   11120kB time=00:00:17.15 bitrate=5311.2kbits/s dup=16 drop=0    frame=  433 fps=2.9 q=26.0 size=   11153kB time=00:00:17.28 bitrate=5287.2kbits/s dup=16 drop=0    frame=  434 fps=2.9 q=26.0 size=   11427kB time=00:00:17.36 bitrate=5390.8kbits/s dup=16 drop=0    frame=  435 fps=2.9 q=26.0 size=   11498kB time=00:00:17.45 bitrate=5397.6kbits/s dup=16 drop=0    frame=  440 fps=2.9 q=26.0 size=   11604kB time=00:00:17.64 bitrate=5388.1kbits/s dup=16 drop=0    frame=  440 fps=2.8 q=26.0 size=   11604kB time=00:00:17.66 bitrate=5381.6kbits/s dup=16 drop=0    frame=  444 fps=2.9 q=26.0 size=   11692kB time=00:00:17.77 bitrate=5389.9kbits/s dup=16 drop=0    frame=  444 fps=2.8 q=26.0 size=   11692kB time=00:00:17.81 bitrate=5377.0kbits/s dup=16 drop=0    frame=  448 fps=2.8 q=26.0 size=   11776kB time=00:00:17.92 bitrate=5383.3kbits/s dup=16 drop=0    frame=  452 fps=2.8 q=26.0 size=   11860kB time=00:00:18.06 bitrate=5377.0kbits/s dup=16 drop=0    frame=  456 fps=2.8 q=23.0 size=   11947kB time=00:00:18.24 bitrate=5365.7kbits/s dup=16 drop=0    frame=  459 fps=2.8 q=26.0 size=   12206kB time=00:00:18.38 bitrate=5437.7kbits/s dup=16 drop=0    frame=  461 fps=2.8 q=27.0 size=   12268kB time=00:00:18.49 bitrate=5433.4kbits/s dup=16 drop=0    frame=  465 fps=2.8 q=27.0 size=   12336kB time=00:00:18.64 bitrate=5420.0kbits/s dup=16 drop=0    frame=  469 fps=2.8 q=26.0 size=   12405kB time=00:00:18.79 bitrate=5407.1kbits/s dup=16 drop=0    frame=  473 fps=2.8 q=26.0 size=   12475kB time=00:00:18.92 bitrate=5400.5kbits/s dup=16 drop=0    frame=  476 fps=2.8 q=26.0 size=   12530kB time=00:00:19.00 bitrate=5400.3kbits/s dup=16 drop=0    frame=  476 fps=2.8 q=26.0 size=   12530kB time=00:00:19.02 bitrate=5394.2kbits/s dup=16 drop=0    frame=  480 fps=2.8 q=26.0 size=   12602kB time=00:00:19.17 bitrate=5383.0kbits/s dup=16 drop=0    frame=  485 fps=2.8 q=26.0 size=   12924kB time=00:00:19.43 bitrate=5447.7kbits/s dup=16 drop=0    frame=  485 fps=2.8 q=26.0 size=   12924kB time=00:00:19.45 bitrate=5441.7kbits/s dup=16 drop=0    frame=  489 fps=2.8 q=26.0 size=   12996kB time=00:00:19.60 bitrate=5430.5kbits/s dup=16 drop=0    frame=  494 fps=2.8 q=26.0 size=   13080kB time=00:00:19.73 bitrate=5429.8kbits/s dup=16 drop=0    frame=  498 fps=2.8 q=26.0 size=   13150kB time=00:00:19.86 bitrate=5423.9kbits/s dup=16 drop=0    frame=  502 fps=2.8 q=26.0 size=   13218kB time=00:00:20.01 bitrate=5411.1kbits/s dup=16 drop=0    frame=  505 fps=2.8 q=26.0 size=   13282kB time=00:00:20.18 bitrate=5391.2kbits/s dup=16 drop=0    frame=  510 fps=2.8 q=26.0 size=   13599kB time=00:00:20.45 bitrate=5445.2kbits/s dup=16 drop=0    frame=  514 fps=2.8 q=26.0 size=   13671kB time=00:00:20.60 bitrate=5434.5kbits/s dup=16 drop=0    frame=  520 fps=2.9 q=26.0 size=   13763kB time=00:00:20.80 bitrate=5420.5kbits/s dup=16 drop=0    frame=  524 fps=2.9 q=26.0 size=   13833kB time=00:00:20.94 bitrate=5409.0kbits/s dup=16 drop=0    frame=  526 fps=2.9 q=26.0 size=   13887kB time=00:00:21.03 bitrate=5408.4kbits/s dup=16 drop=0    frame=  530 fps=2.9 q=26.0 size=   13960kB time=00:00:21.18 bitrate=5398.5kbits/s dup=16 drop=0    frame=  534 fps=2.9 q=26.0 size=   14249kB time=00:00:21.39 bitrate=5455.4kbits/s dup=16 drop=0    frame=  538 fps=2.9 q=26.0 size=   14348kB time=00:00:21.52 bitrate=5460.4kbits/s dup=16 drop=0    frame=  539 fps=2.9 q=26.0 size=   14404kB time=00:00:21.61 bitrate=5460.3kbits/s dup=16 drop=0    frame=  543 fps=2.9 q=27.0 size=   14488kB time=00:00:21.76 bitrate=5454.5kbits/s dup=16 drop=0    frame=  548 fps=2.9 q=26.0 size=   14584kB time=00:00:21.88 bitrate=5458.3kbits/s dup=16 drop=0    frame=  552 fps=2.9 q=26.0 size=   14671kB time=00:00:22.03 bitrate=5453.8kbits/s dup=16 drop=0    frame=  555 fps=2.9 q=26.0 size=   14738kB time=00:00:22.18 bitrate=5441.6kbits/s dup=16 drop=0    frame=  560 fps=2.9 q=26.0 size=   15058kB time=00:00:22.46 bitrate=5491.4kbits/s dup=16 drop=0    frame=  562 fps=2.9 q=26.0 size=   15077kB time=00:00:22.46 bitrate=5498.3kbits/s dup=16 drop=0    frame=  565 fps=2.9 q=27.0 size=   15141kB time=00:00:22.61 bitrate=5485.0kbits/s dup=16 drop=0    frame=  569 fps=2.9 q=27.0 size=   15209kB time=00:00:22.74 bitrate=5478.5kbits/s dup=16 drop=0    frame=  573 fps=2.9 q=26.0 size=   15275kB time=00:00:22.89 bitrate=5466.5kbits/s dup=16 drop=0    frame=  577 fps=2.9 q=26.0 size=   15347kB time=00:00:23.04 bitrate=5456.8kbits/s dup=16 drop=0    frame=  579 fps=2.9 q=26.0 size=   15362kB time=00:00:23.23 bitrate=5416.9kbits/s dup=16 drop=0    frame=  581 fps=2.9 q=24.0 size=   15416kB time=00:00:23.31 bitrate=5416.2kbits/s dup=16 drop=0    frame=  585 fps=2.9 q=26.0 size=   15723kB time=00:00:23.40 bitrate=5503.8kbits/s dup=16 drop=0    frame=  590 fps=2.9 q=27.0 size=   15814kB time=00:00:23.53 bitrate=5505.6kbits/s dup=16 drop=0    frame=  593 fps=2.9 q=27.0 size=   15874kB time=00:00:23.70 bitrate=5486.4kbits/s dup=16 drop=0    frame=  597 fps=2.9 q=26.0 size=   15945kB time=00:00:23.85 bitrate=5476.7kbits/s dup=16 drop=0    frame=  601 fps=2.9 q=26.0 size=   16022kB time=00:00:24.00 bitrate=5468.9kbits/s dup=16 drop=0    frame=  606 fps=2.9 q=24.0 size=   16110kB time=00:00:24.25 bitrate=5441.0kbits/s dup=16 drop=0    frame=  610 fps=2.9 q=26.0 size=   16414kB time=00:00:24.40 bitrate=5509.5kbits/s dup=16 drop=0    frame=  612 fps=2.9 q=26.0 size=   16440kB time=00:00:24.46 bitrate=5504.0kbits/s dup=16 drop=0    frame=  614 fps=2.9 q=27.0 size=   16490kB time=00:00:24.57 bitrate=5496.7kbits/s dup=16 drop=0    frame=  618 fps=2.9 q=27.0 size=   16565kB time=00:00:24.72 bitrate=5488.4kbits/s dup=16 drop=0    frame=  620 fps=2.9 q=27.0 size=   16590kB time=00:00:24.78 bitrate=5482.3kbits/s dup=16 drop=0    frame=  622 fps=2.8 q=26.0 size=   16642kB time=00:00:24.85 bitrate=5485.4kbits/s dup=16 drop=0    frame=  626 fps=2.8 q=26.0 size=   16715kB time=00:00:25.00 bitrate=5476.6kbits/s dup=16 drop=0    frame=  627 fps=2.8 q=26.0 size=   16728kB time=00:00:25.06 bitrate=5466.8kbits/s dup=16 drop=0    frame=  630 fps=2.8 q=26.0 size=   16787kB time=00:00:25.21 bitrate=5453.7kbits/s dup=16 drop=0    frame=  634 fps=2.8 q=26.0 size=   17078kB time=00:00:25.36 bitrate=5515.6kbits/s dup=16 drop=0    frame=  636 fps=2.8 q=27.0 size=   17156kB time=00:00:25.40 bitrate=5531.4kbits/s dup=16 drop=0    frame=  640 fps=2.8 q=27.0 size=   17247kB time=00:00:25.55 bitrate=5528.1kbits/s dup=16 drop=0    frame=  642 fps=2.8 q=27.0 size=   17266kB time=00:00:25.64 bitrate=5515.9kbits/s dup=16 drop=0    frame=  643 fps=2.8 q=27.0 size=   17319kB time=00:00:25.72 bitrate=5514.4kbits/s dup=16 drop=0    frame=  646 fps=2.8 q=27.0 size=   17351kB time=00:00:25.79 bitrate=5510.9kbits/s dup=16 drop=0    frame=  648 fps=2.8 q=27.0 size=   17423kB time=00:00:25.92 bitrate=5506.5kbits/s dup=16 drop=0    frame=  651 fps=2.8 q=27.0 size=   17496kB time=00:00:26.09 bitrate=5493.5kbits/s dup=16 drop=0    frame=  655 fps=2.8 q=27.0 size=   17584kB time=00:00:26.30 bitrate=5476.4kbits/s dup=16 drop=0    frame=  660 fps=2.8 q=26.0 size=   17906kB time=00:00:26.41 bitrate=5554.1kbits/s dup=16 drop=0    frame=  662 fps=2.8 q=27.0 size=   17926kB time=00:00:26.49 bitrate=5542.5kbits/s dup=16 drop=0    frame=  665 fps=2.8 q=27.0 size=   17998kB time=00:00:26.56 bitrate=5551.3kbits/s dup=16 drop=0    frame=  665 fps=2.8 q=27.0 size=   17998kB time=00:00:26.58 bitrate=5546.9kbits/s dup=16 drop=0    frame=  669 fps=2.8 q=27.0 size=   18075kB time=00:00:26.70 bitrate=5543.7kbits/s dup=16 drop=0    frame=  670 fps=2.8 q=27.0 size=   18082kB time=00:00:26.79 bitrate=5528.2kbits/s dup=16 drop=0    frame=  673 fps=2.8 q=27.0 size=   18153kB time=00:00:26.85 bitrate=5536.7kbits/s dup=16 drop=0    frame=  677 fps=2.8 q=27.0 size=   18227kB time=00:00:27.13 bitrate=5502.4kbits/s dup=16 drop=0    frame=  681 fps=2.8 q=24.0 size=   18299kB time=00:00:27.28 bitrate=5494.0kbits/s dup=16 drop=0    frame=  685 fps=2.8 q=26.0 size=   18607kB time=00:00:27.43 bitrate=5556.1kbits/s dup=16 drop=0    frame=  686 fps=2.8 q=27.0 size=   18621kB time=00:00:27.43 bitrate=5560.2kbits/s dup=16 drop=0    frame=  690 fps=2.8 q=27.0 size=   18696kB time=00:00:27.56 bitrate=5556.6kbits/s dup=16 drop=0    frame=  694 fps=2.8 q=27.0 size=   18766kB time=00:00:27.71 bitrate=5547.6kbits/s dup=16 drop=0    frame=  696 fps=2.8 q=27.0 size=   18782kB time=00:00:27.79 bitrate=5535.1kbits/s dup=16 drop=0    frame=  698 fps=2.8 q=27.0 size=   18843kB time=00:00:27.88 bitrate=5536.2kbits/s dup=16 drop=0    frame=  701 fps=2.8 q=27.0 size=   18902kB time=00:00:28.09 bitrate=5511.3kbits/s dup=16 drop=0    frame=  706 fps=2.8 q=24.0 size=   18985kB time=00:00:28.22 bitrate=5510.5kbits/s dup=16 drop=0    frame=  710 fps=2.8 q=26.0 size=   19279kB time=00:00:28.37 bitrate=5566.4kbits/s dup=16 drop=0    frame=  712 fps=2.8 q=27.0 size=   19300kB time=00:00:28.50 bitrate=5547.2kbits/s dup=16 drop=0    frame=  714 fps=2.8 q=27.0 size=   19349kB time=00:00:28.52 bitrate=5557.2kbits/s dup=16 drop=0    frame=  718 fps=2.8 q=27.0 size=   19421kB time=00:00:28.67 bitrate=5548.8kbits/s dup=16 drop=0    frame=  721 fps=2.8 q=27.0 size=   19447kB time=00:00:28.80 bitrate=5531.5kbits/s dup=16 drop=0    frame=  722 fps=2.8 q=27.0 size=   19487kB time=00:00:28.88 bitrate=5526.5kbits/s dup=16 drop=0    frame=  726 fps=2.8 q=27.0 size=   19551kB time=00:00:29.09 bitrate=5504.1kbits/s dup=16 drop=0    frame=  730 fps=2.8 q=27.0 size=   19619kB time=00:00:29.24 bitrate=5495.0kbits/s dup=16 drop=0    frame=  734 fps=2.8 q=26.0 size=   19902kB time=00:00:29.39 bitrate=5545.9kbits/s dup=16 drop=0    frame=  736 fps=2.8 q=27.0 size=   19972kB time=00:00:29.44 bitrate=5557.5kbits/s dup=16 drop=0    frame=  737 fps=2.8 q=27.0 size=   19981kB time=00:00:29.46 bitrate=5555.8kbits/s dup=16 drop=0    frame=  740 fps=2.8 q=27.0 size=   20054kB time=00:00:29.58 bitrate=5552.2kbits/s dup=16 drop=0    frame=  741 fps=2.8 q=27.0 size=   20063kB time=00:00:29.61 bitrate=5550.5kbits/s dup=16 drop=0    frame=  744 fps=2.8 q=27.0 size=   20141kB time=00:00:29.73 bitrate=5548.2kbits/s dup=16 drop=0    frame=  745 fps=2.8 q=27.0 size=   20149kB time=00:00:29.76 bitrate=5546.4kbits/s dup=16 drop=0    